<?xml version="1.0" encoding="utf-8"?>
<!-- Generator: Adobe Illustrator 17.1.0, SVG Export Plug-In . SVG Version: 6.00 Build 0)  -->
<!DOCTYPE svg PUBLIC "-//W3C//DTD SVG 1.1//EN" "http://www.w3.org/Graphics/SVG/1.1/DTD/svg11.dtd">
<svg version="1.1" id="Layer_1" xmlns="http://www.w3.org/2000/svg" xmlns:xlink="http://www.w3.org/1999/xlink" x="0px" y="0px"
	 viewBox="0 0 500 500" enable-background="new 0 0 500 500" xml:space="preserve">
<path fill="#2196F3" d="M136.3,236.1c0,7.1-7,12.9-15.7,12.9H93.5c-8.7,0-15.7-5.8-15.7-12.9V87.8c0-7.1,7-12.9,15.7-12.9h27.1
	c8.7,0,15.7,5.8,15.7,12.9V236.1z"/>
<path fill="#2196F3" d="M405.2,74.8c-6.2-6.4-15.9-7.1-21.5-1.7L80.5,369.3c-5.6,5.5-5.1,15.1,1.2,21.5l18.2,18.7
	c6.2,6.4,15.9,7.1,21.5,1.7L424.6,115c5.6-5.5,5.1-15.1-1.2-21.5L405.2,74.8z"/>
<path fill="#2196F3" d="M423.1,391.1c4.2,4.6,2.5,13-3.8,18.6l-19.5,17.6c-6.3,5.7-14.7,6.5-18.9,1.8l-87.2-96.6
	c-4.2-4.6-2.5-13,3.8-18.6l19.5-17.6c6.3-5.7,14.7-6.5,18.9-1.8L423.1,391.1z"/>
<ellipse fill="#2196F3" cx="106.5" cy="85.5" rx="28.7" ry="28.2"/>
<ellipse fill="#2196F3" cx="107.1" cy="241.3" rx="29.3" ry="26.7"/>
<circle fill="#2196F3" cx="407.1" cy="91" r="28.7"/>
<circle fill="#2196F3" cx="99.5" cy="391.3" r="28.7"/>
<ellipse fill="#2196F3" cx="313.5" cy="312.2" rx="28.7" ry="28.2"/>
<ellipse fill="#2196F3" cx="399.7" cy="407.8" rx="28.7" ry="28.2"/>
</svg>
